<svg width="1024" height="1024" viewBox="0 0 1024 1024" fill="none" xmlns="http://www.w3.org/2000/svg">
<rect width="1024" height="1024" fill="#1E1E1E"/>
<rect width="1024" height="1024" fill="#121212"/>
<rect x="119" y="119" width="787" height="787" fill="#121212"/>
<circle cx="210" cy="234" r="61" fill="#4A52D0"/>
<circle cx="210" cy="416" r="61" fill="#4A52D0"/>
<circle cx="210" cy="598" r="61" fill="#4A52D0"/>
<circle cx="210" cy="780" r="61" fill="#2C2C2C"/>
<circle cx="361" cy="234" r="61" fill="#4A52D0"/>
<circle cx="361" cy="416" r="61" fill="#4A52D0"/>
<circle cx="361" cy="598" r="61" fill="#2C2C2C"/>
<circle cx="361" cy="780" r="61" fill="#2C2C2C"/>
<circle cx="512" cy="234" r="61" fill="#4A52D0"/>
<circle cx="512" cy="416" r="61" fill="#4A52D0"/>
<circle cx="512" cy="598" r="61" fill="#2C2C2C"/>
<circle cx="512" cy="780" r="61" fill="#2C2C2C"/>
<path d="M724 234C724 267.689 696.689 295 663 295C629.311 295 602 267.689 602 234C602 200.311 629.311 173 663 173C696.689 173 724 200.311 724 234Z" fill="#4A52D0"/>
<path d="M724 416C724 449.689 696.689 477 663 477C629.311 477 602 449.689 602 416C602 382.311 629.311 355 663 355C696.689 355 724 382.311 724 416Z" fill="#4A52D0"/>
<path d="M724 598C724 631.689 696.689 659 663 659C629.311 659 602 631.689 602 598C602 564.311 629.311 537 663 537C696.689 537 724 564.311 724 598Z" fill="#2C2C2C"/>
<path d="M724 780C724 813.689 696.689 841 663 841C629.311 841 602 813.689 602 780C602 746.311 629.311 719 663 719C696.689 719 724 746.311 724 780Z" fill="#2C2C2C"/>
<circle cx="814" cy="234" r="61" fill="#4A52D0"/>
<circle cx="814" cy="416" r="61" fill="#4A52D0"/>
<circle cx="814" cy="598" r="61" fill="#2C2C2C"/>
<circle cx="814" cy="780" r="61" fill="#2C2C2C"/>
</svg>
